<svg version="1.1" id="Слой_1" xmlns="http://www.w3.org/2000/svg" x="0" y="0" viewBox="0 0 19.6 20.4" xml:space="preserve"><style>.st0{fill:none;stroke:#000;stroke-width:.75;stroke-miterlimit:10}.st1{fill:#fff}</style><g id="иконка"><circle class="st0" cx="9.9" cy="10.7" r="9.3"/><path transform="rotate(50.437 2.644 4.805)" class="st1" d="M1.8 4h1.6v1.5H1.8z"/><path transform="rotate(50.437 16.957 4.805)" class="st1" d="M16.2 4h1.6v1.5h-1.6z"/><path transform="rotate(56.441 15.699 17.825)" class="st1" d="M14.9 16.8h1.6v2h-1.6z"/><ellipse transform="rotate(-3.5 9.582 3.497) scale(.99996)" cx="9.6" cy="3.5" rx="2.7" ry="3.1" fill="#fff" stroke="#000" stroke-width=".75" stroke-miterlimit="10"/><path class="st0" d="M5.2 18.6s-.1-3.4.2-5c.2-1.5 1-2.4.7-3.3 0 0-.8-1.2-1.4-1.8S1.5 4.8 1.5 4.8s-.5-.7 0-1.1c.5-.3 1.1-.3 1.3-.1S5 5.9 5 5.9 7.1 8 9.1 8c2 0 3-.6 3.3-.8s1.3-.8 1.8-1.2l2.5-2s.7-.7 1.1-.5c0 0 .5.1.7.5s-.6 1.2-.6 1.2l-2.2 2.2s-2.3 2.6-2.4 4.4c0 0-.2 1.8.2 3.6s1 3.1 1 3.1"/></g></svg>