<svg xmlns="http://www.w3.org/2000/svg" viewBox="0 0 22.3 18.9"><path d="M7.3 11.6c-.3-.7-.9-2-1.7-2.7-1.2-1-2.1-2.4-2.5-3.8 0-.5.3-1 1-1.2 0 0 .2 1 .7 1s.8-.2 1.4-.9c.6-.7.7-.8.7-.8s.5-.8 0-1.2S5.1.7 5.1.7 4.5.5 4.2.5s-.9 0-1.4.5C2.2 1.4 1 2.6 1 2.6s-.6.8-.6 1.9c0 1.2.4 4.8.4 4.8s.5 2.5 1.1 4.1c.6 1.6 1.9 3.3 3.1 4.3.4.4.9.7 1.1.7.6 0 1.4-.6 2.1-.6.7 0 2.1.6 3.4.6s5.3-.9 6.8-5.8c0 0 3.5-.8 3.5-4.5s-3.1-4.6-4.4-4.6-4.5.9-4.5 4.2v.6s-.7-.5-1.8-.5-3.4.7-3.6 3.7l-.3.1z" fill="none" stroke="#000" stroke-width=".75" stroke-miterlimit="10"/></svg>