<svg version="1.1" id="Слой_1" xmlns="http://www.w3.org/2000/svg" x="0" y="0" viewBox="0 0 15.2 15.2" xml:space="preserve"><style>.st0{fill:none;stroke:#000;stroke-width:.5;stroke-miterlimit:10}</style><g id="линейка"><path class="st0" d="M10 3.8S10.3.4 6.2.4H3.7S1 .4.4 2.6v6.1c0 .4.6 2.4 3.5 2.4"/><path class="st0" d="M14.7 6.8v6.3c0 1.7-1.6 1.6-1.6 1.6H6.7c-1.4 0-1.5-.8-1.5-.8v-3.4c0-1.7 1.2-1.6 1.2-1.6h6.2c1.5 0 2.1-.7 2.1-2.1s-1.4-1.7-1.4-1.7H4C2.1 5.1.8 3.7.8 3.7l-.4-.5m8.5 7.6V9m3.6 1.8V8.9"/><ellipse cx="5.2" cy="2.9" rx="1" ry=".4"/></g></svg>